<?xml version="1.0" encoding="utf-8"?>
<!-- Generator: Adobe Illustrator 16.0.0, SVG Export Plug-In . SVG Version: 6.00 Build 0)  -->
<!DOCTYPE svg PUBLIC "-//W3C//DTD SVG 1.1//EN" "http://www.w3.org/Graphics/SVG/1.1/DTD/svg11.dtd">
<svg version="1.1" id="Layer_1" xmlns="http://www.w3.org/2000/svg" xmlns:xlink="http://www.w3.org/1999/xlink" x="0px" y="0px"
	 width="2625.5px" height="477px" viewBox="25.492 0 2625.5 477" enable-background="new 25.492 0 2625.5 477" xml:space="preserve"
	>
<g id="Page-1">
	<g id="JS-React">
		<g id="_x39_c2d95d0-27b0-11e7-b6ae-8108cf4caa96-react">
			<g id="logo-_x28_1_x29_">
				<circle id="Oval" fill="#00D8FF" cx="298.106" cy="237.653" r="47.469"/>
				<path id="Shape" fill="none" stroke="#00D8FF" stroke-width="22.7091" d="M298.106,141.14
					c63.733,0,122.939,9.145,167.581,24.514c53.787,18.517,86.856,46.585,86.856,72c0,26.485-35.049,56.303-92.807,75.44
					c-43.668,14.468-101.13,22.02-161.63,22.02c-62.028,0-120.765-7.09-164.916-22.18c-55.87-19.098-89.521-49.301-89.521-75.28
					c0-25.209,31.575-53.06,84.605-71.548C173.082,150.483,233.75,141.14,298.106,141.14L298.106,141.14z"/>
				<path id="Shape_1_" fill="none" stroke="#00D8FF" stroke-width="22.7091" d="M214.089,189.675
					c31.839-55.209,69.34-101.93,104.954-132.924c42.911-37.343,83.746-51.969,105.762-39.272
					c22.944,13.231,31.265,58.489,18.988,118.083c-9.283,45.057-31.446,98.607-61.671,151.017
					c-30.987,53.733-66.471,101.073-101.601,131.781c-44.454,38.858-87.43,52.92-109.936,39.942
					c-21.837-12.595-30.189-53.859-19.713-109.035C159.725,302.647,181.938,245.425,214.089,189.675L214.089,189.675z"/>
				<path id="Shape_2_" fill="none" stroke="#00D8FF" stroke-width="22.7091" d="M214.169,286.719
					c-31.931-55.157-53.68-110.979-62.745-157.313c-10.923-55.826-3.2-98.509,18.795-111.242
					c22.921-13.27,66.287,2.124,111.786,42.523c34.4,30.543,69.725,76.489,100.036,128.848
					c31.078,53.681,54.371,108.065,63.431,153.837c11.465,57.92,2.185,102.175-20.299,115.191
					c-21.817,12.63-61.74-0.741-104.31-37.375C284.895,390.237,246.414,342.414,214.169,286.719L214.169,286.719z"/>
			</g>
		</g>
	</g>
</g>
<g>
	<path fill="#00D8FF" d="M843.43,326.601l-60.592-95.012h-48.044v95.012h-29.758V87.457h96.088
		c43.741,0,75.292,27.966,75.292,72.066c0,43.024-29.758,66.688-62.385,69.556l64.536,97.521H843.43z M845.581,159.523
		c0-27.249-19.72-45.534-48.044-45.534h-62.744v91.427h62.744C825.861,205.416,845.581,186.413,845.581,159.523z"/>
	<path fill="#00D8FF" d="M901.51,239.835c0-50.195,35.854-90.709,85.331-90.709c52.347,0,83.181,40.873,83.181,92.861v6.812H930.192
		c2.151,32.627,24.739,59.876,62.026,59.876c20.078,0,39.798-7.888,53.78-22.229l12.907,17.568
		c-17.568,17.21-40.873,26.891-68.839,26.891C938.438,330.903,901.51,293.974,901.51,239.835z M986.482,171.354
		c-36.93,0-55.215,31.193-56.648,57.366h113.655C1043.131,203.264,1025.921,171.354,986.482,171.354z"/>
	<path fill="#00D8FF" d="M1221.677,326.601v-19.72c-13.982,15.775-34.061,24.022-57.365,24.022
		c-29.042,0-60.234-19.72-60.234-57.366c0-39.08,30.834-57.007,60.234-57.007c23.663,0,43.383,7.529,57.365,23.305v-31.193
		c0-22.946-18.644-36.212-43.741-36.212c-20.795,0-37.646,7.171-53.063,24.022l-12.549-18.644
		c18.644-19.361,40.873-28.683,69.197-28.683c36.93,0,67.047,16.493,67.047,58.441v119.034H1221.677z M1221.677,290.03v-32.985
		c-10.397-13.983-28.683-21.154-47.327-21.154c-25.456,0-43.023,15.776-43.023,37.646c0,22.229,17.567,38.005,43.023,38.005
		C1192.994,311.542,1211.279,304.371,1221.677,290.03z"/>
	<path fill="#00D8FF" d="M1292.667,239.835c0-51.271,34.777-90.709,86.407-90.709c31.551,0,50.194,12.907,63.46,30.117
		l-17.927,16.134c-11.473-15.775-26.173-22.229-44.1-22.229c-36.57,0-59.875,28.324-59.875,66.688s23.305,67.046,59.875,67.046
		c17.927,0,32.627-7.171,44.1-22.588l17.927,16.493c-13.266,17.21-31.909,30.117-63.46,30.117
		C1327.444,330.903,1292.667,291.105,1292.667,239.835z"/>
	<path fill="#00D8FF" d="M1485.912,290.389V177.091h-28.684v-23.664h28.684v-47.327h27.248v47.327h35.137v23.664h-35.137v107.561
		c0,12.907,5.737,22.229,17.21,22.229c7.888,0,14.7-3.585,18.285-7.529l7.888,20.437c-6.812,6.454-16.492,11.115-31.909,11.115
		C1498.819,330.903,1485.912,316.203,1485.912,290.389z"/>
	<path fill="#00D8FF" d="M1849.1,326.601l-139.47-190.741v190.741h-29.759V87.457h30.476l137.678,186.797V87.457h29.759v239.144
		H1849.1z"/>
	<path fill="#00D8FF" d="M2040.912,326.601v-19.72c-13.982,15.775-34.061,24.022-57.365,24.022
		c-29.042,0-60.234-19.72-60.234-57.366c0-39.08,30.834-57.007,60.234-57.007c23.663,0,43.383,7.529,57.365,23.305v-31.193
		c0-22.946-18.644-36.212-43.741-36.212c-20.795,0-37.646,7.171-53.063,24.022l-12.549-18.644
		c18.644-19.361,40.873-28.683,69.197-28.683c36.93,0,67.047,16.493,67.047,58.441v119.034H2040.912z M2040.912,290.03v-32.985
		c-10.397-13.983-28.683-21.154-47.327-21.154c-25.456,0-43.023,15.776-43.023,37.646c0,22.229,17.567,38.005,43.023,38.005
		C2012.229,311.542,2030.515,304.371,2040.912,290.03z"/>
	<path fill="#00D8FF" d="M2127.318,290.389V177.091h-28.684v-23.664h28.684v-47.327h27.248v47.327h35.137v23.664h-35.137v107.561
		c0,12.907,5.737,22.229,17.21,22.229c7.888,0,14.7-3.585,18.285-7.529l7.888,20.437c-6.812,6.454-16.492,11.115-31.909,11.115
		C2140.226,330.903,2127.318,316.203,2127.318,290.389z"/>
	<path fill="#00D8FF" d="M2222.686,110.762c0-10.039,8.246-18.286,18.285-18.286s17.927,8.247,17.927,18.286
		s-7.888,17.927-17.927,17.927S2222.686,120.801,2222.686,110.762z M2227.347,326.601V153.428h26.89v173.173H2227.347z"/>
	<path fill="#00D8FF" d="M2354.265,326.601l-72.066-173.173h29.4l57.365,141.98l57.725-141.98h29.041l-72.065,173.173H2354.265z"/>
	<path fill="#00D8FF" d="M2473.652,239.835c0-50.195,35.854-90.709,85.331-90.709c52.347,0,83.181,40.873,83.181,92.861v6.812
		h-139.829c2.151,32.627,24.739,59.876,62.026,59.876c20.078,0,39.798-7.888,53.78-22.229l12.907,17.568
		c-17.568,17.21-40.873,26.891-68.839,26.891C2510.581,330.903,2473.652,293.974,2473.652,239.835z M2558.625,171.354
		c-36.93,0-55.215,31.193-56.648,57.366h113.655C2615.273,203.264,2598.063,171.354,2558.625,171.354z"/>
</g>
</svg>
